<!DOCTYPE svg PUBLIC "-//W3C//DTD SVG 1.1//EN" "http://www.w3.org/Graphics/SVG/1.1/DTD/svg11.dtd">
<!-- Uploaded to: SVG Repo, www.svgrepo.com, Transformed by: SVG Repo Mixer Tools -->
<svg fill="#ff6565" width="800px" height="800px" viewBox="0 0 32 32" version="1.1" xmlns="http://www.w3.org/2000/svg">
<g id="SVGRepo_bgCarrier" stroke-width="0"/>
<g id="SVGRepo_tracerCarrier" stroke-linecap="round" stroke-linejoin="round"/>
<g id="SVGRepo_iconCarrier"> <title>align-left</title> <path d="M4 4.75h12c0.414 0 0.75-0.336 0.75-0.75s-0.336-0.75-0.75-0.75v0h-12c-0.414 0-0.75 0.336-0.75 0.75s0.336 0.75 0.75 0.75v0zM28 27.25h-24c-0.414 0-0.75 0.336-0.75 0.75s0.336 0.75 0.75 0.75v0h24c0.414 0 0.75-0.336 0.75-0.75s-0.336-0.75-0.75-0.75v0zM4 20.75h12c0.414 0 0.75-0.336 0.75-0.75s-0.336-0.75-0.75-0.75v0h-12c-0.414 0-0.75 0.336-0.75 0.75s0.336 0.75 0.75 0.75v0zM4 12.75h24c0.414 0 0.75-0.336 0.75-0.75s-0.336-0.75-0.75-0.75v0h-24c-0.414 0-0.75 0.336-0.75 0.75s0.336 0.75 0.75 0.75v0z"/> </g>
</svg>